<?xml version="1.0" standalone="no"?>
<!DOCTYPE svg PUBLIC "-//W3C//DTD SVG 20010904//EN"
 "http://www.w3.org/TR/2001/REC-SVG-20010904/DTD/svg10.dtd">
<svg version="1.0" xmlns="http://www.w3.org/2000/svg"
 width="260.000000pt" height="260.000000pt" viewBox="0 0 260.000000 260.000000"
 preserveAspectRatio="xMidYMid meet">
<metadata>
Created by potrace 1.11, written by Peter Selinger 2001-2013
</metadata>
<g transform="translate(0.000000,260.000000) scale(0.100000,-0.100000)"
fill="#000000" stroke="none">
<path d="M0 1300 l0 -1300 1300 0 1300 0 0 1300 0 1300 -1300 0 -1300 0 0
-1300z m1044 775 c139 -27 167 -37 227 -82 70 -53 80 -81 19 -51 -36 18 -45
19 -92 8 l-52 -13 39 -34 c21 -18 55 -38 74 -43 37 -10 100 -54 91 -64 -3 -3
-27 9 -53 26 -26 17 -50 28 -53 26 -3 -3 18 -20 47 -37 28 -18 54 -30 57 -27
3 4 14 -1 24 -11 22 -20 22 -19 -2 52 -23 67 -20 82 7 33 13 -24 18 -55 18
-118 0 -76 -3 -91 -30 -139 -83 -149 -264 -221 -449 -177 -65 15 -146 52 -146
66 0 3 15 4 33 2 18 -2 48 3 67 10 l35 15 -32 16 c-31 16 -153 39 -162 31 -3
-2 6 -15 19 -29 13 -14 19 -25 12 -25 -19 0 -71 73 -88 124 -23 68 -15 182 19
257 43 97 105 151 212 185 53 17 64 17 159 -1z m869 -378 c60 -28 140 -104
169 -161 98 -191 82 -592 -35 -876 -55 -134 -84 -165 -116 -126 -10 12 -7 26
13 68 43 92 70 268 70 468 1 254 -28 365 -118 448 -75 69 -154 74 -220 16
l-29 -26 7 -201 c3 -111 9 -342 13 -512 5 -277 4 -311 -10 -323 -9 -8 -24 -12
-34 -10 -15 3 -18 15 -20 88 -1 47 -7 300 -14 563 l-12 477 62 60 c34 33 76
64 94 69 46 15 121 5 180 -22z m-795 -384 c44 -85 83 -495 63 -652 -13 -101
-38 -156 -71 -156 -42 0 -46 24 -25 147 32 190 23 438 -21 596 -12 41 -12 57
-3 68 16 19 46 18 57 -3z"/>
<path d="M987 2032 c-14 -15 -29 -40 -33 -56 l-7 -29 47 6 c29 4 61 18 84 36
20 16 51 32 67 36 l30 8 -25 7 c-14 4 -50 10 -81 13 -52 6 -57 5 -82 -21z"/>
<path d="M755 1978 c-36 -33 -38 -38 -29 -67 5 -18 13 -33 17 -34 10 -2 59
113 54 127 -2 5 -21 -6 -42 -26z"/>
<path d="M896 1995 c-9 -26 -7 -32 5 -12 6 10 9 21 6 23 -2 3 -7 -2 -11 -11z"/>
<path d="M867 1988 c-2 -7 -1 -22 4 -33 6 -16 8 -14 8 13 1 33 -4 41 -12 20z"/>
<path d="M1133 1982 c-18 -9 -33 -20 -33 -25 0 -9 56 19 65 33 8 12 7 12 -32
-8z"/>
<path d="M1164 1965 c-17 -13 -15 -13 21 -4 59 15 63 17 29 18 -16 1 -39 -6
-50 -14z"/>
<path d="M801 1936 c-27 -42 -26 -66 0 -100 27 -34 36 -31 58 20 17 36 17 44
4 77 -19 46 -35 47 -62 3z"/>
<path d="M1063 1931 c-17 -10 -54 -91 -48 -101 8 -13 55 -2 77 17 9 8 35 17
58 20 38 5 40 7 24 24 -19 21 -97 50 -111 40z"/>
<path d="M966 1908 c-3 -13 -7 -32 -9 -43 -3 -14 -5 -12 -6 8 0 15 -5 27 -11
27 -15 0 -12 -76 4 -89 11 -9 17 -4 29 26 13 32 16 34 16 14 1 -34 10 -22 26
36 l15 48 -20 -24 c-20 -23 -20 -23 -20 -2 0 28 -18 27 -24 -1z"/>
<path d="M701 1900 c0 -8 6 -28 14 -45 7 -16 14 -23 14 -15 0 8 -6 29 -14 45
-7 17 -14 23 -14 15z"/>
<path d="M886 1868 c-21 -32 -31 -88 -22 -123 8 -33 45 -48 86 -34 36 13 37
25 9 55 -12 13 -29 47 -39 76 l-17 52 -17 -26z"/>
<path d="M680 1863 c0 -13 41 -75 46 -70 3 2 -5 21 -17 41 -21 35 -29 44 -29
29z"/>
<path d="M1130 1850 c-12 -7 -8 -10 15 -10 17 0 37 5 45 10 12 7 8 10 -15 10
-16 0 -37 -5 -45 -10z"/>
<path d="M1150 1820 c37 -12 82 -12 75 0 -3 6 -27 10 -53 9 -38 -1 -42 -2 -22
-9z"/>
<path d="M678 1804 c13 -24 40 -49 47 -42 3 2 -9 18 -26 34 -24 22 -29 24 -21
8z"/>
<path d="M760 1809 c0 -25 45 -61 72 -57 22 4 22 5 -7 17 -16 6 -38 22 -47 34
-13 17 -18 18 -18 6z"/>
<path d="M990 1779 c0 -18 2 -19 15 -9 8 7 15 16 15 21 0 5 -7 9 -15 9 -9 0
-15 -9 -15 -21z"/>
<path d="M1189 1785 c43 -19 62 -19 37 0 -11 8 -31 15 -45 15 -24 -1 -24 -2 8
-15z"/>
<path d="M1293 1767 c20 -17 48 -47 62 -66 21 -30 25 -32 25 -14 0 27 -43 79
-81 98 -45 24 -47 17 -6 -18z"/>
<path d="M657 1773 c-18 -17 -5 -62 24 -87 35 -30 75 -36 65 -10 -3 9 -6 22
-6 31 0 16 -53 73 -68 73 -5 0 -12 -3 -15 -7z"/>
<path d="M1140 1745 c0 -21 9 -49 20 -65 11 -15 23 -45 28 -66 l8 -38 27 46
c49 84 31 138 -53 155 -29 5 -30 4 -30 -32z"/>
<path d="M1312 1704 c34 -48 48 -61 48 -46 0 15 -59 92 -71 92 -5 0 5 -21 23
-46z"/>
<path d="M1059 1733 c-3 -21 4 -69 10 -76 9 -9 51 29 51 48 0 22 -58 48 -61
28z"/>
<path d="M764 1693 c18 -73 78 -104 127 -64 l24 19 -24 26 c-24 25 -76 46
-115 46 -15 0 -17 -5 -12 -27z"/>
<path d="M1261 1669 c-10 -31 -10 -52 0 -95 7 -30 15 -54 19 -54 19 0 63 62
63 89 0 32 -40 101 -59 101 -6 0 -16 -18 -23 -41z"/>
<path d="M927 1693 c-9 -2 -15 -9 -12 -14 9 -13 28 -11 51 6 19 14 19 14 -1
14 -11 -1 -28 -3 -38 -6z"/>
<path d="M983 1681 c-29 -24 -29 -33 -2 -29 12 2 26 13 30 26 10 27 2 28 -28
3z"/>
<path d="M1131 1675 c0 -5 9 -28 19 -50 17 -36 19 -38 19 -14 1 15 -8 37 -19
50 -10 13 -19 20 -19 14z"/>
<path d="M690 1654 c0 -8 71 -36 77 -30 3 3 -12 12 -32 20 -41 18 -45 18 -45
10z"/>
<path d="M1121 1615 c-1 -22 3 -47 8 -54 18 -28 24 34 7 66 l-15 28 0 -40z"/>
<path d="M689 1621 c13 -12 37 -21 55 -21 l31 1 -31 13 c-17 7 -41 17 -55 20
l-24 7 24 -20z"/>
<path d="M1096 1595 c4 -27 8 -52 10 -54 9 -10 3 75 -6 89 -7 10 -8 -1 -4 -35z"/>
<path d="M871 1608 c-29 -13 -40 -23 -31 -28 18 -11 45 -1 71 26 27 29 19 29
-40 2z"/>
<path d="M1003 1608 c-11 -13 -29 -37 -41 -54 l-22 -32 31 -6 c48 -9 84 -7 97
6 7 7 12 34 12 60 0 46 -1 48 -28 48 -17 0 -37 -9 -49 -22z"/>
<path d="M910 1589 c-19 -15 -30 -29 -23 -29 15 0 70 46 63 53 -3 3 -21 -8
-40 -24z"/>
<path d="M954 1598 c-44 -50 -47 -57 -24 -51 24 6 54 46 48 63 -2 6 -13 1 -24
-12z"/>
<path d="M1236 1558 c9 -70 14 -74 14 -10 0 28 -5 54 -10 57 -8 5 -9 -10 -4
-47z"/>
<path d="M730 1580 c8 -5 30 -10 49 -10 45 0 37 6 -19 14 -31 4 -40 3 -30 -4z"/>
<path d="M1187 1553 c-2 -5 -7 -26 -11 -48 -8 -47 8 -27 17 23 6 30 3 41 -6
25z"/>
<path d="M1110 1514 c-19 -7 -42 -13 -51 -13 -8 -1 -30 -17 -49 -36 l-34 -35
67 0 c59 0 71 3 92 25 14 13 25 36 25 50 0 28 -1 28 -50 9z"/>
<path d="M893 1495 c-18 -8 -33 -16 -33 -19 0 -7 63 15 75 25 14 13 -5 10 -42
-6z"/>
<path d="M913 1477 c-41 -15 -52 -27 -25 -27 26 0 72 20 72 32 0 10 -7 9 -47
-5z"/>
</g>
</svg>
